# xmcd
#
# Track frame offsets:
#	182
#	11162
#	23177
#	36817
#	49677
#	60600
#	73127
#	85622
#	96815
#	108050
#	119757
#	131945
#	145252
#	160115
#	173680
#	185555
#	199902
#	213117
#
# Disc length: 3024 seconds
#
# Revision: 0
# Processed by: cddbd v1.4PL0 Copyright (c) Steve Scherf et al.
# Submitted via: dBpowerAMP V4.0
#
DISCID=fd0bce12
DTITLE=Nappy Brown - Night Time Is The Right Time Disk 2
DYEAR=1900
DGENRE=
TTITLE0=I'm Gonna Get Ya 
TTITLE1=I Cried Like A Baby
TTITLE2=The Right Time
TTITLE3=There'll Come A Day 
TTITLE4=It Don't Hurt No More
TTITLE5=Baby Cry Cry Baby
TTITLE6=Love Locks
TTITLE7=Down In The Valley
TTITLE8=Baby I Got News For You
TTITLE9=Little By Little
TTITLE10=The Hole I'm In
TTITLE11=Skidy Woe
TTITLE12=I've Had My Fun
TTITLE13=Didn't You Know
TTITLE14=Coal Miner
TTITLE15=The Lock On The Door
TTITLE16=So Glad I Don't Have To Cry No More
TTITLE17=Any Time Is The Right Time
EXTD=
EXTT0=
EXTT1=
EXTT2=
EXTT3=
EXTT4=
EXTT5=
EXTT6=
EXTT7=
EXTT8=
EXTT9=
EXTT10=
EXTT11=
EXTT12=
EXTT13=
EXTT14=
EXTT15=
EXTT16=
EXTT17=
PLAYORDER=
